<svg width="14" height="17" viewBox="0 0 14 17" fill="none" xmlns="http://www.w3.org/2000/svg">
<g clip-path="url(#clip0_3960_609)">
<path d="M12.3894 7.08429C12.2318 7.08429 12.0832 7.02366 11.9711 6.9115L6.48733 1.42474L1.00057 6.9115C0.767152 7.13885 0.391264 7.13279 0.166943 6.89634C-0.0543457 6.66899 -0.0543457 6.30523 0.166943 6.07484L6.069 0.172787C6.29938 -0.0575958 6.67224 -0.0575958 6.90262 0.172787L12.8077 6.07787C13.0381 6.30826 13.0381 6.68111 12.8077 6.9115C12.6955 7.02366 12.547 7.08429 12.3894 7.08429Z" fill="#0A66C2"/>
<path d="M6.4876 14.7597C6.16021 14.7597 5.89648 14.496 5.89648 14.1686V0.591115C5.89648 0.263728 6.16021 0 6.4876 0C6.81499 0 7.07871 0.263728 7.07871 0.591115V14.1686C7.07871 14.496 6.81499 14.7597 6.4876 14.7597Z" fill="#0A66C2"/>
<path d="M6.4876 16.5299C6.81406 16.5299 7.07871 16.2652 7.07871 15.9388C7.07871 15.6123 6.81406 15.3477 6.4876 15.3477C6.16114 15.3477 5.89648 15.6123 5.89648 15.9388C5.89648 16.2652 6.16114 16.5299 6.4876 16.5299Z" fill="#0A66C2"/>
</g>
<defs>
<clipPath id="clip0_3960_609">
<rect width="12.9803" height="16.53" fill="white" transform="translate(0.324219)"/>
</clipPath>
</defs>
</svg>
