<svg width="42" height="44" viewBox="0 0 42 44" fill="none" xmlns="http://www.w3.org/2000/svg">
<path d="M13.7509 10.7445C13.7509 9.1298 14.0216 7.8698 14.5629 6.96447C15.1136 6.0498 16.0562 5.59247 17.3909 5.59247C18.7256 5.59247 19.6636 6.0498 20.2049 6.96447C20.7556 7.8698 21.0309 9.1298 21.0309 10.7445C21.0309 12.3778 20.7556 13.6565 20.2049 14.5805C19.6636 15.4951 18.7256 15.9525 17.3909 15.9525C16.0562 15.9525 15.1136 15.4951 14.5629 14.5805C14.0216 13.6565 13.7509 12.3778 13.7509 10.7445ZM19.4629 10.7445C19.4629 9.98847 19.4116 9.34914 19.3089 8.82647C19.2156 8.3038 19.0196 7.87913 18.7209 7.55247C18.4222 7.21647 17.9789 7.04847 17.3909 7.04847C16.8029 7.04847 16.3596 7.21647 16.0609 7.55247C15.7622 7.87913 15.5616 8.3038 15.4589 8.82647C15.3656 9.34914 15.3189 9.98847 15.3189 10.7445C15.3189 11.5285 15.3656 12.1865 15.4589 12.7185C15.5522 13.2505 15.7482 13.6798 16.0469 14.0065C16.3549 14.3331 16.8029 14.4965 17.3909 14.4965C17.9789 14.4965 18.4222 14.3331 18.7209 14.0065C19.0289 13.6798 19.2296 13.2505 19.3229 12.7185C19.4162 12.1865 19.4629 11.5285 19.4629 10.7445ZM29.1876 7.00647L25.2956 15.9805H23.6856L27.6196 7.17447H22.4396V5.81647H29.1876V7.00647Z" fill="#0B74AD"/>
<path d="M16.1649 28.4006V29.2886H12.5289V32.1086H15.4809V32.9966H12.5289V36.7646H11.4369V28.4006H16.1649ZM23.4838 33.2246C23.4838 33.4326 23.4718 33.6526 23.4478 33.8846H18.1918C18.2318 34.5326 18.4518 35.0406 18.8518 35.4086C19.2598 35.7686 19.7518 35.9486 20.3278 35.9486C20.7998 35.9486 21.1918 35.8406 21.5038 35.6246C21.8238 35.4006 22.0478 35.1046 22.1758 34.7366H23.3518C23.1758 35.3686 22.8238 35.8846 22.2958 36.2846C21.7678 36.6766 21.1118 36.8726 20.3278 36.8726C19.7038 36.8726 19.1438 36.7326 18.6478 36.4526C18.1598 36.1726 17.7758 35.7766 17.4958 35.2646C17.2158 34.7446 17.0758 34.1446 17.0758 33.4646C17.0758 32.7846 17.2118 32.1886 17.4838 31.6766C17.7558 31.1646 18.1358 30.7726 18.6238 30.5006C19.1198 30.2206 19.6878 30.0806 20.3278 30.0806C20.9518 30.0806 21.5038 30.2166 21.9838 30.4886C22.4638 30.7606 22.8318 31.1366 23.0878 31.6166C23.3518 32.0886 23.4838 32.6246 23.4838 33.2246ZM22.3558 32.9966C22.3558 32.5806 22.2638 32.2246 22.0798 31.9286C21.8958 31.6246 21.6438 31.3966 21.3238 31.2446C21.0118 31.0846 20.6638 31.0046 20.2798 31.0046C19.7278 31.0046 19.2558 31.1806 18.8638 31.5326C18.4798 31.8846 18.2598 32.3726 18.2038 32.9966H22.3558ZM26.0172 31.4126C26.2412 31.0206 26.5692 30.7006 27.0012 30.4526C27.4332 30.2046 27.9252 30.0806 28.4772 30.0806C29.0692 30.0806 29.6012 30.2206 30.0732 30.5006C30.5452 30.7806 30.9172 31.1766 31.1892 31.6886C31.4612 32.1926 31.5972 32.7806 31.5972 33.4526C31.5972 34.1166 31.4612 34.7086 31.1892 35.2286C30.9172 35.7486 30.5412 36.1526 30.0612 36.4406C29.5892 36.7286 29.0612 36.8726 28.4772 36.8726C27.9092 36.8726 27.4092 36.7486 26.9772 36.5006C26.5532 36.2526 26.2332 35.9366 26.0172 35.5526V36.7646H24.9252V27.8846H26.0172V31.4126ZM30.4812 33.4526C30.4812 32.9566 30.3812 32.5246 30.1812 32.1566C29.9812 31.7886 29.7092 31.5086 29.3652 31.3166C29.0292 31.1246 28.6572 31.0286 28.2492 31.0286C27.8492 31.0286 27.4772 31.1286 27.1332 31.3286C26.7972 31.5206 26.5252 31.8046 26.3172 32.1806C26.1172 32.5486 26.0172 32.9766 26.0172 33.4646C26.0172 33.9606 26.1172 34.3966 26.3172 34.7726C26.5252 35.1406 26.7972 35.4246 27.1332 35.6246C27.4772 35.8166 27.8492 35.9126 28.2492 35.9126C28.6572 35.9126 29.0292 35.8166 29.3652 35.6246C29.7092 35.4246 29.9812 35.1406 30.1812 34.7726C30.3812 34.3966 30.4812 33.9566 30.4812 33.4526Z" fill="#0B74AD"/>
</svg>
