<svg width="834" height="188" viewBox="0 0 834 188" fill="none" xmlns="http://www.w3.org/2000/svg">
<path d="M2.73869 107.763C1.3602 107.841 0.306143 109.022 0.384389 110.401C0.462635 111.779 1.64355 112.833 3.02205 112.755L2.73869 107.763ZM294.266 29.7922L294.332 27.2931L294.266 29.7922ZM460.55 184.764L460.531 187.264L460.55 184.764ZM613.259 2.6439L613.279 5.14381L613.259 2.6439ZM743.345 184.764L743.579 182.275L743.345 184.764ZM3.02205 112.755C5.53238 112.613 9.00415 113.389 13.4134 115.106C17.7682 116.802 22.7945 119.318 28.3295 122.408C39.4142 128.594 52.2364 136.906 65.4261 145.164C78.557 153.386 92.0262 161.539 104.216 167.252C110.314 170.111 116.16 172.392 121.535 173.762C126.889 175.127 131.939 175.631 136.374 174.776L135.428 169.866C131.996 170.528 127.752 170.187 122.77 168.917C117.809 167.652 112.276 165.509 106.338 162.725C94.4536 157.154 81.2159 149.152 68.0796 140.927C55.0021 132.738 41.9967 124.31 30.7663 118.042C25.1437 114.903 19.8905 112.263 15.2282 110.447C10.6202 108.652 6.337 107.559 2.73869 107.763L3.02205 112.755ZM136.374 174.776C141.039 173.876 145.702 170.625 150.33 166.173C155.013 161.667 159.953 155.638 165.144 148.703C170.342 141.758 175.859 133.813 181.68 125.449C187.51 117.071 193.655 108.255 200.148 99.5084C213.149 81.9952 227.447 64.8913 243.173 52.3025C258.891 39.7205 275.84 31.8041 294.2 32.2913L294.332 27.2931C274.368 26.7632 256.293 35.3958 240.048 48.3991C223.813 61.3957 209.21 78.9134 196.134 96.5281C189.589 105.345 183.402 114.22 177.576 122.593C171.74 130.98 166.277 138.846 161.141 145.707C155.999 152.577 151.251 158.348 146.864 162.57C142.421 166.844 138.63 169.249 135.428 169.866L136.374 174.776ZM294.2 32.2913C312.953 32.789 327.601 42.1969 340.376 56.4727C353.208 70.8124 363.923 89.8034 374.842 109.074C385.69 128.219 396.741 147.643 410.147 162.285C423.616 176.995 439.672 187.111 460.531 187.264L460.568 182.264C441.551 182.124 426.722 172.983 413.835 158.908C400.884 144.764 390.108 125.873 379.192 106.61C368.349 87.4719 357.365 67.9602 344.102 53.1384C330.781 38.2526 314.934 27.8399 294.332 27.2931L294.2 32.2913ZM460.531 187.264C478.543 187.396 492.933 175.235 505.284 158.051C517.67 140.818 528.486 117.858 539.173 95.1583C549.918 72.334 560.536 49.7681 572.6 32.8518C584.702 15.8833 597.787 5.27043 613.279 5.14381L613.238 0.143981C595.245 0.29104 580.872 12.6414 568.529 29.9486C556.149 47.3078 545.336 70.3298 534.649 93.0285C523.904 115.852 513.287 138.35 501.224 155.133C489.125 171.965 476.051 182.377 460.568 182.264L460.531 187.264ZM613.279 5.14381C629.096 5.01455 641.444 15.1035 652.093 31.4516C662.738 47.795 671.281 69.7926 679.623 92.2907C687.915 114.652 696.011 137.523 705.726 155.106C715.381 172.58 727.12 185.744 743.11 187.253L743.579 182.275C730.274 181.02 719.65 169.967 710.103 152.688C700.616 135.519 692.672 113.1 684.312 90.5524C676.002 68.1416 667.283 45.6108 656.282 28.7227C645.285 11.8393 631.605 -0.0061326 613.238 0.143981L613.279 5.14381ZM743.11 187.253C752.317 188.121 762.599 183.286 772.505 176.24C782.52 169.118 792.641 159.379 801.649 149.626C810.67 139.859 818.641 130.005 824.354 122.599C827.211 118.894 829.507 115.797 831.091 113.624C831.882 112.537 832.496 111.681 832.913 111.096C833.121 110.803 833.281 110.577 833.388 110.424C833.442 110.348 833.483 110.289 833.511 110.25C833.525 110.23 833.535 110.215 833.543 110.204C833.546 110.199 833.549 110.195 833.551 110.192C833.552 110.191 833.553 110.19 833.553 110.189C833.554 110.188 833.554 110.187 831.503 108.758C829.452 107.329 829.452 107.329 829.452 107.33C829.451 107.33 829.451 107.331 829.45 107.332C829.449 107.334 829.446 107.337 829.443 107.341C829.437 107.35 829.428 107.364 829.415 107.382C829.39 107.418 829.351 107.473 829.3 107.546C829.197 107.693 829.042 107.911 828.839 108.197C828.432 108.768 827.829 109.609 827.049 110.68C825.489 112.822 823.221 115.882 820.394 119.546C814.739 126.878 806.865 136.609 797.976 146.234C789.074 155.872 779.22 165.329 769.608 172.166C759.888 179.078 750.891 182.965 743.579 182.275L743.11 187.253Z" fill="#002B55" fill-opacity="0.74"/>
</svg>
